<?xml version="1.0" encoding="UTF-8"?> <!-- Generator: Adobe Illustrator 22.1.0, SVG Export Plug-In . SVG Version: 6.00 Build 0) --> <svg xmlns="http://www.w3.org/2000/svg" xmlns:xlink="http://www.w3.org/1999/xlink" x="0px" y="0px" viewBox="0 0 526.9 154" style="enable-background:new 0 0 526.9 154;" xml:space="preserve"> <style type="text/css"> .st0{display:none;} .st1{display:inline;fill:none;stroke:#000000;stroke-width:0.3335;stroke-linecap:round;stroke-linejoin:round;stroke-miterlimit:22.9256;} .st2{fill:#00B482;} .st3{fill:#0073BE;} </style> <g id="Слой_1"> <g class="st0"> <line class="st1" x1="263.5" y1="-203.2" x2="23.5" y2="-64.6"></line> <line class="st1" x1="283.5" y1="-191.6" x2="43.5" y2="-76.1"></line> <line class="st1" x1="503.5" y1="-64.6" x2="263.5" y2="-203.2"></line> <line class="st1" x1="503.5" y1="-41.5" x2="283.5" y2="-191.6"></line> <line class="st1" x1="263.5" y1="351.1" x2="503.5" y2="212.5"></line> <line class="st1" x1="243.5" y1="339.6" x2="483.5" y2="224.1"></line> <line class="st1" x1="501.8" y1="-19.4" x2="463.5" y2="233.7"></line> <line class="st1" x1="463.5" y1="233.7" x2="225.1" y2="327"></line> <line class="st1" x1="498.6" y1="1.7" x2="443.6" y2="241.5"></line> <line class="st1" x1="443.6" y1="241.5" x2="208.5" y2="313.7"></line> <line class="st1" x1="63.5" y1="-85.8" x2="301.8" y2="-179.1"></line> <line class="st1" x1="83.3" y1="-93.5" x2="318.5" y2="-165.8"></line> <line class="st1" x1="23.5" y1="212.5" x2="263.5" y2="351.1"></line> <line class="st1" x1="23.5" y1="189.4" x2="243.5" y2="339.6"></line> <line class="st1" x1="225.1" y1="327" x2="25.1" y2="167.3"></line> <line class="st1" x1="208.5" y1="313.7" x2="28.3" y2="146.2"></line> <line class="st1" x1="503.5" y1="212.5" x2="503.5" y2="-64.6"></line> <line class="st1" x1="483.5" y1="224.1" x2="503.5" y2="-41.5"></line> <line class="st1" x1="301.8" y1="-179.1" x2="501.8" y2="-19.4"></line> <line class="st1" x1="318.5" y1="-165.8" x2="498.6" y2="1.7"></line> <line class="st1" x1="193.4" y1="299.8" x2="424" y2="247.5"></line> <line class="st1" x1="424" y1="247.5" x2="494" y2="21.7"></line> <line class="st1" x1="494" y1="21.7" x2="333.5" y2="-151.8"></line> <line class="st1" x1="333.5" y1="-151.8" x2="102.9" y2="-99.6"></line> <line class="st1" x1="32.9" y1="126.2" x2="193.4" y2="299.8"></line> <line class="st1" x1="38.7" y1="107.4" x2="180.1" y2="285.3"></line> <line class="st1" x1="180.1" y1="285.3" x2="404.8" y2="251.9"></line> <line class="st1" x1="404.8" y1="251.9" x2="488.2" y2="40.5"></line> <line class="st1" x1="488.2" y1="40.5" x2="346.9" y2="-137.4"></line> <line class="st1" x1="346.9" y1="-137.4" x2="122.1" y2="-103.9"></line> <line class="st1" x1="140.9" y1="-106.7" x2="358.6" y2="-122.5"></line> <line class="st1" x1="358.6" y1="-122.5" x2="481.2" y2="58.1"></line> <line class="st1" x1="481.2" y1="58.1" x2="386.1" y2="254.7"></line> <line class="st1" x1="386.1" y1="254.7" x2="168.3" y2="270.5"></line> <line class="st1" x1="168.3" y1="270.5" x2="45.7" y2="89.8"></line> <line class="st1" x1="159" y1="-108" x2="368.8" y2="-107.5"></line> <line class="st1" x1="368.8" y1="-107.5" x2="473.3" y2="74.5"></line> <line class="st1" x1="473.3" y1="74.5" x2="367.9" y2="256"></line> <line class="st1" x1="367.9" y1="256" x2="158.1" y2="255.4"></line> <line class="st1" x1="158.1" y1="255.4" x2="53.6" y2="73.4"></line> <line class="st1" x1="53.6" y1="73.4" x2="159" y2="-108"></line> <line class="st1" x1="149.4" y1="240.3" x2="350.4" y2="255.9"></line> <line class="st1" x1="350.4" y1="255.9" x2="464.5" y2="89.6"></line> <line class="st1" x1="464.5" y1="89.6" x2="377.6" y2="-92.3"></line> <line class="st1" x1="377.6" y1="-92.3" x2="176.5" y2="-108"></line> <line class="st1" x1="176.5" y1="-108" x2="62.4" y2="58.3"></line> <line class="st1" x1="142.1" y1="225.1" x2="333.7" y2="254.6"></line> <line class="st1" x1="333.7" y1="254.6" x2="455" y2="103.5"></line> <line class="st1" x1="455" y1="103.5" x2="384.8" y2="-77.2"></line> <line class="st1" x1="384.8" y1="-77.2" x2="193.2" y2="-106.7"></line> <line class="st1" x1="193.2" y1="-106.7" x2="71.9" y2="44.5"></line> <line class="st1" x1="82" y1="31.9" x2="209.2" y2="-104.2"></line> <line class="st1" x1="209.2" y1="-104.2" x2="390.7" y2="-62.1"></line> <line class="st1" x1="390.7" y1="-62.1" x2="444.9" y2="116.1"></line> <line class="st1" x1="444.9" y1="116.1" x2="317.7" y2="252.2"></line> <line class="st1" x1="317.7" y1="252.2" x2="136.3" y2="210.1"></line> <line class="st1" x1="224.3" y1="-100.7" x2="395.2" y2="-47.3"></line> <line class="st1" x1="395.2" y1="-47.3" x2="434.3" y2="127.4"></line> <line class="st1" x1="434.3" y1="127.4" x2="302.6" y2="248.7"></line> <line class="st1" x1="302.6" y1="248.7" x2="131.8" y2="195.2"></line> <line class="st1" x1="92.6" y1="20.5" x2="224.3" y2="-100.7"></line> <line class="st1" x1="288.4" y1="244.2" x2="423.3" y2="137.5"></line> <line class="st1" x1="275" y1="238.9" x2="412.1" y2="146.4"></line> <line class="st1" x1="401.5" y1="-4.8" x2="400.7" y2="154.1"></line> <line class="st1" x1="400.7" y1="154.1" x2="262.7" y2="232.9"></line> <line class="st1" x1="401.4" y1="8.5" x2="389.2" y2="160.7"></line> <line class="st1" x1="389.2" y1="160.7" x2="251.2" y2="226.2"></line> <line class="st1" x1="238.6" y1="-96.2" x2="103.6" y2="10.4"></line> <line class="st1" x1="251.9" y1="-91" x2="114.8" y2="1.5"></line> <line class="st1" x1="126.3" y1="-6.2" x2="264.3" y2="-84.9"></line> <line class="st1" x1="137.8" y1="-12.7" x2="275.7" y2="-78.2"></line> <line class="st1" x1="128.5" y1="180.6" x2="288.4" y2="244.2"></line> <line class="st1" x1="126.4" y1="166.5" x2="275" y2="238.9"></line> <line class="st1" x1="262.7" y1="232.9" x2="125.5" y2="152.7"></line> <line class="st1" x1="251.2" y1="226.2" x2="125.5" y2="139.5"></line> <line class="st1" x1="423.3" y1="137.5" x2="398.4" y2="-32.7"></line> <line class="st1" x1="398.4" y1="-32.7" x2="238.6" y2="-96.2"></line> <line class="st1" x1="412.1" y1="146.4" x2="400.5" y2="-18.5"></line> <line class="st1" x1="400.5" y1="-18.5" x2="251.9" y2="-91"></line> <line class="st1" x1="264.3" y1="-84.9" x2="401.5" y2="-4.8"></line> <line class="st1" x1="275.7" y1="-78.2" x2="401.4" y2="8.5"></line> <line class="st1" x1="240.7" y1="219" x2="377.7" y2="166.1"></line> <line class="st1" x1="377.7" y1="166.1" x2="400.4" y2="21.2"></line> <line class="st1" x1="400.4" y1="21.2" x2="286.2" y2="-71"></line> <line class="st1" x1="286.2" y1="-71" x2="149.3" y2="-18.2"></line> <line class="st1" x1="126.5" y1="126.8" x2="240.7" y2="219"></line> <line class="st1" x1="128.4" y1="114.7" x2="231.2" y2="211.3"></line> <line class="st1" x1="231.2" y1="211.3" x2="366.3" y2="170.5"></line> <line class="st1" x1="366.3" y1="170.5" x2="398.5" y2="33.2"></line> <line class="st1" x1="398.5" y1="33.2" x2="295.7" y2="-63.3"></line> <line class="st1" x1="295.7" y1="-63.3" x2="160.7" y2="-22.6"></line> <line class="st1" x1="160.7" y1="-22.6" x2="128.4" y2="114.7"></line> <line class="st1" x1="131.1" y1="103.3" x2="171.9" y2="-26"></line> <line class="st1" x1="171.9" y1="-26" x2="304.3" y2="-55.3"></line> <line class="st1" x1="304.3" y1="-55.3" x2="395.8" y2="44.7"></line> <line class="st1" x1="395.8" y1="44.7" x2="355" y2="173.9"></line> <line class="st1" x1="355" y1="173.9" x2="222.7" y2="203.2"></line> <line class="st1" x1="222.7" y1="203.2" x2="131.1" y2="103.3"></line> <line class="st1" x1="183" y1="-28.4" x2="311.9" y2="-47"></line> <line class="st1" x1="311.9" y1="-47" x2="392.4" y2="55.5"></line> <line class="st1" x1="392.4" y1="55.5" x2="344" y2="176.4"></line> <line class="st1" x1="344" y1="176.4" x2="215" y2="194.9"></line> <line class="st1" x1="215" y1="194.9" x2="134.5" y2="92.5"></line> <line class="st1" x1="134.5" y1="92.5" x2="183" y2="-28.4"></line> <line class="st1" x1="208.3" y1="186.4" x2="333.2" y2="177.9"></line> <line class="st1" x1="333.2" y1="177.9" x2="388.4" y2="65.5"></line> <line class="st1" x1="388.4" y1="65.5" x2="318.6" y2="-38.4"></line> <line class="st1" x1="318.6" y1="-38.4" x2="193.7" y2="-30"></line> <line class="st1" x1="193.7" y1="-30" x2="138.6" y2="82.4"></line> <line class="st1" x1="138.6" y1="82.4" x2="208.3" y2="186.4"></line> <line class="st1" x1="143.2" y1="73.1" x2="202.5" y2="177.7"></line> <line class="st1" x1="202.5" y1="177.7" x2="322.8" y2="178.6"></line> <line class="st1" x1="322.8" y1="178.6" x2="383.8" y2="74.9"></line> <line class="st1" x1="383.8" y1="74.9" x2="324.4" y2="-29.8"></line> <line class="st1" x1="324.4" y1="-29.8" x2="204.1" y2="-30.7"></line> <line class="st1" x1="204.1" y1="-30.7" x2="143.2" y2="73.1"></line> <line class="st1" x1="148.2" y1="64.4" x2="214.1" y2="-30.6"></line> <line class="st1" x1="214.1" y1="-30.6" x2="329.4" y2="-21"></line> <line class="st1" x1="329.4" y1="-21" x2="378.7" y2="83.5"></line> <line class="st1" x1="378.7" y1="83.5" x2="312.8" y2="178.6"></line> <line class="st1" x1="312.8" y1="178.6" x2="197.6" y2="169"></line> <line class="st1" x1="197.6" y1="169" x2="148.2" y2="64.4"></line> <line class="st1" x1="223.7" y1="-29.8" x2="333.5" y2="-12.3"></line> <line class="st1" x1="333.5" y1="-12.3" x2="373.2" y2="91.5"></line> <line class="st1" x1="373.2" y1="91.5" x2="303.2" y2="177.8"></line> <line class="st1" x1="303.2" y1="177.8" x2="193.5" y2="160.3"></line> <line class="st1" x1="193.5" y1="160.3" x2="153.7" y2="56.5"></line> <line class="st1" x1="153.7" y1="56.5" x2="223.7" y2="-29.8"></line> <line class="st1" x1="232.9" y1="-28.3" x2="159.6" y2="49.3"></line> <line class="st1" x1="241.5" y1="-26.3" x2="165.7" y2="42.8"></line> <line class="st1" x1="336.8" y1="-3.7" x2="232.9" y2="-28.3"></line> <line class="st1" x1="339.3" y1="4.9" x2="241.5" y2="-26.3"></line> <line class="st1" x1="294" y1="176.3" x2="367.4" y2="98.7"></line> <line class="st1" x1="285.4" y1="174.2" x2="361.3" y2="105.1"></line> <line class="st1" x1="341.2" y1="13.2" x2="354.9" y2="110.9"></line> <line class="st1" x1="354.9" y1="110.9" x2="277.2" y2="171.6"></line> <line class="st1" x1="342.3" y1="21.4" x2="348.5" y2="115.9"></line> <line class="st1" x1="348.5" y1="115.9" x2="269.6" y2="168.6"></line> <line class="st1" x1="172" y1="37.1" x2="249.7" y2="-23.7"></line> <line class="st1" x1="178.5" y1="32" x2="257.3" y2="-20.6"></line> <line class="st1" x1="190.1" y1="151.6" x2="294" y2="176.3"></line> <line class="st1" x1="187.6" y1="143.1" x2="285.4" y2="174.2"></line> <line class="st1" x1="277.2" y1="171.6" x2="185.8" y2="134.7"></line> <line class="st1" x1="269.6" y1="168.6" x2="184.6" y2="126.6"></line> <line class="st1" x1="159.6" y1="49.3" x2="190.1" y2="151.6"></line> <line class="st1" x1="165.7" y1="42.8" x2="187.6" y2="143.1"></line> <line class="st1" x1="185.8" y1="134.7" x2="172" y2="37.1"></line> <line class="st1" x1="184.6" y1="126.6" x2="178.5" y2="32"></line> <line class="st1" x1="367.4" y1="98.7" x2="336.8" y2="-3.7"></line> <line class="st1" x1="361.3" y1="105.1" x2="339.3" y2="4.9"></line> <line class="st1" x1="249.7" y1="-23.7" x2="341.2" y2="13.2"></line> <line class="st1" x1="257.3" y1="-20.6" x2="342.3" y2="21.4"></line> <line class="st1" x1="262.5" y1="165.1" x2="341.9" y2="120.3"></line> <line class="st1" x1="341.9" y1="120.3" x2="342.8" y2="29.2"></line> <line class="st1" x1="342.8" y1="29.2" x2="264.4" y2="-17.1"></line> <line class="st1" x1="264.4" y1="-17.1" x2="185" y2="27.6"></line> <line class="st1" x1="185" y1="27.6" x2="184.1" y2="118.7"></line> <line class="st1" x1="184.1" y1="118.7" x2="262.5" y2="165.1"></line> <line class="st1" x1="184.2" y1="111.1" x2="256" y2="161.2"></line> <line class="st1" x1="256" y1="161.2" x2="335.3" y2="124.1"></line> <line class="st1" x1="335.3" y1="124.1" x2="342.7" y2="36.8"></line> <line class="st1" x1="342.7" y1="36.8" x2="270.9" y2="-13.3"></line> <line class="st1" x1="270.9" y1="-13.3" x2="191.6" y2="23.9"></line> <line class="st1" x1="191.6" y1="23.9" x2="184.2" y2="111.1"></line> <line class="st1" x1="184.8" y1="103.9" x2="198.3" y2="20.8"></line> <line class="st1" x1="198.3" y1="20.8" x2="276.9" y2="-9.1"></line> <line class="st1" x1="276.9" y1="-9.1" x2="342.1" y2="44.1"></line> <line class="st1" x1="342.1" y1="44.1" x2="328.7" y2="127.2"></line> <line class="st1" x1="328.7" y1="127.2" x2="250" y2="157"></line> <line class="st1" x1="250" y1="157" x2="184.8" y2="103.9"></line> <line class="st1" x1="204.8" y1="18.3" x2="282.3" y2="-4.7"></line> <line class="st1" x1="282.3" y1="-4.7" x2="341" y2="51"></line> <line class="st1" x1="341" y1="51" x2="322.1" y2="129.6"></line> <line class="st1" x1="322.1" y1="129.6" x2="244.6" y2="152.6"></line> <line class="st1" x1="244.6" y1="152.6" x2="185.9" y2="96.9"></line> <line class="st1" x1="185.9" y1="96.9" x2="204.8" y2="18.3"></line> <line class="st1" x1="239.7" y1="148" x2="315.7" y2="131.6"></line> <line class="st1" x1="315.7" y1="131.6" x2="339.4" y2="57.6"></line> <line class="st1" x1="339.4" y1="57.6" x2="287.2" y2="0"></line> <line class="st1" x1="287.2" y1="0" x2="211.3" y2="16.4"></line> <line class="st1" x1="211.3" y1="16.4" x2="187.5" y2="90.4"></line> <line class="st1" x1="187.5" y1="90.4" x2="239.7" y2="148"></line> <line class="st1" x1="189.5" y1="84.2" x2="235.3" y2="143.2"></line> <line class="st1" x1="235.3" y1="143.2" x2="309.3" y2="132.9"></line> <line class="st1" x1="309.3" y1="132.9" x2="337.4" y2="63.7"></line> <line class="st1" x1="337.4" y1="63.7" x2="291.6" y2="4.8"></line> <line class="st1" x1="291.6" y1="4.8" x2="217.6" y2="15"></line> <line class="st1" x1="217.6" y1="15" x2="189.5" y2="84.2"></line> <line class="st1" x1="191.8" y1="78.5" x2="223.8" y2="14.2"></line> <line class="st1" x1="223.8" y1="14.2" x2="295.4" y2="9.7"></line> <line class="st1" x1="295.4" y1="9.7" x2="335.1" y2="69.5"></line> <line class="st1" x1="335.1" y1="69.5" x2="303.2" y2="133.8"></line> <line class="st1" x1="303.2" y1="133.8" x2="231.5" y2="138.3"></line> <line class="st1" x1="231.5" y1="138.3" x2="191.8" y2="78.5"></line> <line class="st1" x1="229.7" y1="13.8" x2="298.7" y2="14.7"></line> <line class="st1" x1="298.7" y1="14.7" x2="332.4" y2="74.9"></line> <line class="st1" x1="332.4" y1="74.9" x2="297.2" y2="134.2"></line> <line class="st1" x1="297.2" y1="134.2" x2="228.2" y2="133.3"></line> <line class="st1" x1="228.2" y1="133.3" x2="194.5" y2="73.1"></line> <line class="st1" x1="194.5" y1="73.1" x2="229.7" y2="13.8"></line> <line class="st1" x1="291.4" y1="134.1" x2="329.5" y2="79.8"></line> <line class="st1" x1="285.9" y1="133.6" x2="326.3" y2="84.3"></line> <line class="st1" x1="305.7" y1="29.7" x2="323" y2="88.4"></line> <line class="st1" x1="323" y1="88.4" x2="280.7" y2="132.7"></line> <line class="st1" x1="307.2" y1="34.6" x2="319.4" y2="92.1"></line> <line class="st1" x1="319.4" y1="92.1" x2="275.7" y2="131.5"></line> <line class="st1" x1="235.5" y1="13.9" x2="197.4" y2="68.2"></line> <line class="st1" x1="241" y1="14.4" x2="200.6" y2="63.6"></line> <line class="st1" x1="204" y1="59.5" x2="246.2" y2="15.2"></line> <line class="st1" x1="207.5" y1="55.8" x2="251.2" y2="16.4"></line> <line class="st1" x1="225.4" y1="128.3" x2="291.4" y2="134.1"></line> <line class="st1" x1="223.1" y1="123.2" x2="285.9" y2="133.6"></line> <line class="st1" x1="280.7" y1="132.7" x2="221.2" y2="118.3"></line> <line class="st1" x1="275.7" y1="131.5" x2="219.8" y2="113.4"></line> <line class="st1" x1="197.4" y1="68.2" x2="225.4" y2="128.3"></line> <line class="st1" x1="200.6" y1="63.6" x2="223.1" y2="123.2"></line> <line class="st1" x1="221.2" y1="118.3" x2="204" y2="59.5"></line> <line class="st1" x1="219.8" y1="113.4" x2="207.5" y2="55.8"></line> <line class="st1" x1="329.5" y1="79.8" x2="301.5" y2="19.7"></line> <line class="st1" x1="301.5" y1="19.7" x2="235.5" y2="13.9"></line> <line class="st1" x1="326.3" y1="84.3" x2="303.9" y2="24.7"></line> <line class="st1" x1="303.9" y1="24.7" x2="241" y2="14.4"></line> <line class="st1" x1="246.2" y1="15.2" x2="305.7" y2="29.7"></line> <line class="st1" x1="251.2" y1="16.4" x2="307.2" y2="34.6"></line> <line class="st1" x1="271.1" y1="130" x2="315.8" y2="95.4"></line> <line class="st1" x1="315.8" y1="95.4" x2="308.2" y2="39.4"></line> <line class="st1" x1="308.2" y1="39.4" x2="255.9" y2="17.9"></line> <line class="st1" x1="255.9" y1="17.9" x2="211.1" y2="52.5"></line> <line class="st1" x1="211.1" y1="52.5" x2="218.7" y2="108.6"></line> <line class="st1" x1="218.7" y1="108.6" x2="271.1" y2="130"></line> <line class="st1" x1="218.1" y1="103.9" x2="266.7" y2="128.2"></line> <line class="st1" x1="266.7" y1="128.2" x2="312.1" y2="98.3"></line> <line class="st1" x1="312.1" y1="98.3" x2="308.8" y2="44"></line> <line class="st1" x1="308.8" y1="44" x2="260.2" y2="19.7"></line> <line class="st1" x1="260.2" y1="19.7" x2="214.9" y2="49.7"></line> <line class="st1" x1="214.9" y1="49.7" x2="218.1" y2="103.9"></line> <line class="st1" x1="217.8" y1="99.4" x2="218.6" y2="47.2"></line> <line class="st1" x1="218.6" y1="47.2" x2="264.3" y2="21.7"></line> <line class="st1" x1="264.3" y1="21.7" x2="309.1" y2="48.6"></line> <line class="st1" x1="309.1" y1="48.6" x2="308.3" y2="100.8"></line> <line class="st1" x1="308.3" y1="100.8" x2="262.7" y2="126.2"></line> <line class="st1" x1="262.7" y1="126.2" x2="217.8" y2="99.4"></line> <line class="st1" x1="222.4" y1="45.1" x2="268" y2="24"></line> <line class="st1" x1="268" y1="24" x2="309" y2="52.9"></line> <line class="st1" x1="309" y1="52.9" x2="304.5" y2="102.9"></line> <line class="st1" x1="304.5" y1="102.9" x2="258.9" y2="124"></line> <line class="st1" x1="258.9" y1="124" x2="217.9" y2="95"></line> <line class="st1" x1="217.9" y1="95" x2="222.4" y2="45.1"></line> <line class="st1" x1="255.5" y1="121.6" x2="300.7" y2="104.7"></line> <line class="st1" x1="300.7" y1="104.7" x2="308.6" y2="57.1"></line> <line class="st1" x1="308.6" y1="57.1" x2="271.4" y2="26.4"></line> <line class="st1" x1="271.4" y1="26.4" x2="226.2" y2="43.3"></line> <line class="st1" x1="226.2" y1="43.3" x2="218.3" y2="90.9"></line> <line class="st1" x1="218.3" y1="90.9" x2="255.5" y2="121.6"></line> <line class="st1" x1="218.9" y1="86.9" x2="252.4" y2="119"></line> <line class="st1" x1="252.4" y1="119" x2="296.9" y2="106.1"></line> <line class="st1" x1="296.9" y1="106.1" x2="308" y2="61"></line> <line class="st1" x1="308" y1="61" x2="274.5" y2="28.9"></line> <line class="st1" x1="274.5" y1="28.9" x2="230" y2="41.9"></line> <line class="st1" x1="230" y1="41.9" x2="218.9" y2="86.9"></line> <line class="st1" x1="219.9" y1="83.2" x2="233.7" y2="40.8"></line> <line class="st1" x1="233.7" y1="40.8" x2="277.3" y2="31.6"></line> <line class="st1" x1="277.3" y1="31.6" x2="307.1" y2="64.8"></line> <line class="st1" x1="307.1" y1="64.8" x2="293.2" y2="107.1"></line> <line class="st1" x1="293.2" y1="107.1" x2="249.6" y2="116.3"></line> <line class="st1" x1="249.6" y1="116.3" x2="219.9" y2="83.2"></line> <line class="st1" x1="237.3" y1="40" x2="279.8" y2="34.4"></line> <line class="st1" x1="279.8" y1="34.4" x2="305.9" y2="68.3"></line> <line class="st1" x1="305.9" y1="68.3" x2="289.6" y2="107.9"></line> <line class="st1" x1="289.6" y1="107.9" x2="247.1" y2="113.6"></line> <line class="st1" x1="247.1" y1="113.6" x2="221" y2="79.6"></line> <line class="st1" x1="221" y1="79.6" x2="237.3" y2="40"></line> <line class="st1" x1="240.9" y1="39.6" x2="222.4" y2="76.3"></line> <line class="st1" x1="244.3" y1="39.4" x2="223.9" y2="73.3"></line> <line class="st1" x1="282" y1="37.2" x2="240.9" y2="39.6"></line> <line class="st1" x1="283.8" y1="40.1" x2="244.3" y2="39.4"></line> <line class="st1" x1="286" y1="108.4" x2="304.5" y2="71.6"></line> <line class="st1" x1="282.6" y1="108.6" x2="303" y2="74.7"></line> <line class="st1" x1="285.4" y1="43" x2="301.3" y2="77.5"></line> <line class="st1" x1="301.3" y1="77.5" x2="279.3" y2="108.5"></line> <line class="st1" x1="286.8" y1="45.8" x2="299.5" y2="80.1"></line> <line class="st1" x1="299.5" y1="80.1" x2="276.2" y2="108.2"></line> <line class="st1" x1="225.6" y1="70.4" x2="247.6" y2="39.4"></line> <line class="st1" x1="227.4" y1="67.9" x2="250.8" y2="39.7"></line> <line class="st1" x1="245" y1="110.7" x2="286" y2="108.4"></line> <line class="st1" x1="243.1" y1="107.9" x2="282.6" y2="108.6"></line> <line class="st1" x1="279.3" y1="108.5" x2="241.5" y2="105"></line> <line class="st1" x1="276.2" y1="108.2" x2="240.2" y2="102.1"></line> <line class="st1" x1="222.4" y1="76.3" x2="245" y2="110.7"></line> <line class="st1" x1="223.9" y1="73.3" x2="243.1" y2="107.9"></line> <line class="st1" x1="241.5" y1="105" x2="225.6" y2="70.4"></line> <line class="st1" x1="240.2" y1="102.1" x2="227.4" y2="67.9"></line> <line class="st1" x1="304.5" y1="71.6" x2="282" y2="37.2"></line> <line class="st1" x1="303" y1="74.7" x2="283.8" y2="40.1"></line> <line class="st1" x1="247.6" y1="39.4" x2="285.4" y2="43"></line> <line class="st1" x1="250.8" y1="39.7" x2="286.8" y2="45.8"></line> <line class="st1" x1="273.2" y1="107.7" x2="297.5" y2="82.4"></line> <line class="st1" x1="297.5" y1="82.4" x2="287.8" y2="48.7"></line> <line class="st1" x1="287.8" y1="48.7" x2="253.8" y2="40.2"></line> <line class="st1" x1="253.8" y1="40.2" x2="229.4" y2="65.5"></line> <line class="st1" x1="229.4" y1="65.5" x2="239.1" y2="99.3"></line> <line class="st1" x1="239.1" y1="99.3" x2="273.2" y2="107.7"></line> <line class="st1" x1="238.3" y1="96.4" x2="270.3" y2="107"></line> <line class="st1" x1="270.3" y1="107" x2="295.5" y2="84.5"></line> <line class="st1" x1="295.5" y1="84.5" x2="288.6" y2="51.5"></line> <line class="st1" x1="288.6" y1="51.5" x2="256.6" y2="40.9"></line> <line class="st1" x1="256.6" y1="40.9" x2="231.4" y2="63.4"></line> <line class="st1" x1="231.4" y1="63.4" x2="238.3" y2="96.4"></line> <line class="st1" x1="237.7" y1="93.7" x2="233.5" y2="61.5"></line> <line class="st1" x1="233.5" y1="61.5" x2="259.3" y2="41.8"></line> <line class="st1" x1="259.3" y1="41.8" x2="289.2" y2="54.3"></line> <line class="st1" x1="289.2" y1="54.3" x2="293.4" y2="86.4"></line> <line class="st1" x1="293.4" y1="86.4" x2="267.7" y2="106.1"></line> <line class="st1" x1="267.7" y1="106.1" x2="237.7" y2="93.7"></line> <line class="st1" x1="235.7" y1="59.9" x2="261.8" y2="42.9"></line> <line class="st1" x1="261.8" y1="42.9" x2="289.6" y2="56.9"></line> <line class="st1" x1="289.6" y1="56.9" x2="291.3" y2="88.1"></line> <line class="st1" x1="291.3" y1="88.1" x2="265.2" y2="105.1"></line> <line class="st1" x1="265.2" y1="105.1" x2="237.4" y2="91"></line> <line class="st1" x1="237.4" y1="91" x2="235.7" y2="59.9"></line> <line class="st1" x1="262.9" y1="103.9" x2="289.1" y2="89.5"></line> <line class="st1" x1="289.1" y1="89.5" x2="289.7" y2="59.5"></line> <line class="st1" x1="289.7" y1="59.5" x2="264.1" y2="44"></line> <line class="st1" x1="264.1" y1="44" x2="237.8" y2="58.5"></line> <line class="st1" x1="237.8" y1="58.5" x2="237.2" y2="88.4"></line> <line class="st1" x1="237.2" y1="88.4" x2="262.9" y2="103.9"></line> <line class="st1" x1="237.3" y1="85.9" x2="260.7" y2="102.6"></line> <line class="st1" x1="260.7" y1="102.6" x2="286.9" y2="90.7"></line> <line class="st1" x1="286.9" y1="90.7" x2="289.6" y2="62"></line> <line class="st1" x1="289.6" y1="62" x2="266.2" y2="45.3"></line> <line class="st1" x1="266.2" y1="45.3" x2="240" y2="57.3"></line> <line class="st1" x1="240" y1="57.3" x2="237.3" y2="85.9"></line> <line class="st1" x1="237.5" y1="83.5" x2="242.2" y2="56.3"></line> <line class="st1" x1="242.2" y1="56.3" x2="268.2" y2="46.7"></line> <line class="st1" x1="268.2" y1="46.7" x2="289.4" y2="64.4"></line> <line class="st1" x1="289.4" y1="64.4" x2="284.7" y2="91.7"></line> <line class="st1" x1="284.7" y1="91.7" x2="258.8" y2="101.2"></line> <line class="st1" x1="258.8" y1="101.2" x2="237.5" y2="83.5"></line> <line class="st1" x1="244.4" y1="55.5" x2="269.9" y2="48.2"></line> <line class="st1" x1="269.9" y1="48.2" x2="289" y2="66.7"></line> <line class="st1" x1="289" y1="66.7" x2="282.6" y2="92.5"></line> <line class="st1" x1="282.6" y1="92.5" x2="257" y2="99.8"></line> <line class="st1" x1="257" y1="99.8" x2="237.9" y2="81.3"></line> <line class="st1" x1="237.9" y1="81.3" x2="244.4" y2="55.5"></line> <line class="st1" x1="280.4" y1="93.1" x2="288.5" y2="68.8"></line> <line class="st1" x1="278.3" y1="93.5" x2="287.8" y2="70.9"></line> <line class="st1" x1="274.2" y1="53" x2="287" y2="72.7"></line> <line class="st1" x1="287" y1="72.7" x2="276.3" y2="93.8"></line> <line class="st1" x1="275.2" y1="54.6" x2="286.1" y2="74.5"></line> <line class="st1" x1="286.1" y1="74.5" x2="274.3" y2="93.9"></line> <line class="st1" x1="246.5" y1="54.9" x2="238.4" y2="79.1"></line> <line class="st1" x1="248.6" y1="54.4" x2="239.1" y2="77.1"></line> <line class="st1" x1="239.9" y1="75.2" x2="250.6" y2="54.2"></line> <line class="st1" x1="240.8" y1="73.5" x2="252.6" y2="54.1"></line> <line class="st1" x1="255.4" y1="98.2" x2="280.4" y2="93.1"></line> <line class="st1" x1="254" y1="96.6" x2="278.3" y2="93.5"></line> <line class="st1" x1="276.3" y1="93.8" x2="252.7" y2="95"></line> <line class="st1" x1="274.3" y1="93.9" x2="251.7" y2="93.3"></line> <line class="st1" x1="238.4" y1="79.1" x2="255.4" y2="98.2"></line> <line class="st1" x1="239.1" y1="77.1" x2="254" y2="96.6"></line> <line class="st1" x1="252.7" y1="95" x2="239.9" y2="75.2"></line> <line class="st1" x1="251.7" y1="93.3" x2="240.8" y2="73.5"></line> <line class="st1" x1="288.5" y1="68.8" x2="271.5" y2="49.7"></line> <line class="st1" x1="271.5" y1="49.7" x2="246.5" y2="54.9"></line> <line class="st1" x1="287.8" y1="70.9" x2="272.9" y2="51.3"></line> <line class="st1" x1="272.9" y1="51.3" x2="248.6" y2="54.4"></line> <line class="st1" x1="250.6" y1="54.2" x2="274.2" y2="53"></line> <line class="st1" x1="252.6" y1="54.1" x2="275.2" y2="54.6"></line> <line class="st1" x1="272.5" y1="93.8" x2="285.2" y2="76.1"></line> <line class="st1" x1="285.2" y1="76.1" x2="276.2" y2="56.3"></line> <line class="st1" x1="276.2" y1="56.3" x2="254.5" y2="54.1"></line> <line class="st1" x1="254.5" y1="54.1" x2="241.8" y2="71.8"></line> <line class="st1" x1="241.8" y1="71.8" x2="250.8" y2="91.7"></line> <line class="st1" x1="250.8" y1="91.7" x2="272.5" y2="93.8"></line> <line class="st1" x1="250" y1="90" x2="270.7" y2="93.6"></line> <line class="st1" x1="270.7" y1="93.6" x2="284.1" y2="77.6"></line> <line class="st1" x1="284.1" y1="77.6" x2="276.9" y2="57.9"></line> <line class="st1" x1="276.9" y1="57.9" x2="256.3" y2="54.3"></line> <line class="st1" x1="256.3" y1="54.3" x2="242.8" y2="70.4"></line> <line class="st1" x1="242.8" y1="70.4" x2="250" y2="90"></line> <line class="st1" x1="249.4" y1="88.4" x2="244" y2="69"></line> <line class="st1" x1="244" y1="69" x2="258" y2="54.6"></line> <line class="st1" x1="258" y1="54.6" x2="277.5" y2="59.6"></line> <line class="st1" x1="277.5" y1="59.6" x2="283" y2="78.9"></line> <line class="st1" x1="283" y1="78.9" x2="268.9" y2="93.3"></line> <line class="st1" x1="268.9" y1="93.3" x2="249.4" y2="88.4"></line> <line class="st1" x1="245.1" y1="67.8" x2="259.6" y2="55"></line> <line class="st1" x1="259.6" y1="55" x2="278" y2="61.2"></line> <line class="st1" x1="278" y1="61.2" x2="281.8" y2="80.1"></line> <line class="st1" x1="281.8" y1="80.1" x2="267.3" y2="92.9"></line> <line class="st1" x1="267.3" y1="92.9" x2="249" y2="86.8"></line> <line class="st1" x1="249" y1="86.8" x2="245.1" y2="67.8"></line> <line class="st1" x1="265.8" y1="92.4" x2="280.6" y2="81.2"></line> <line class="st1" x1="280.6" y1="81.2" x2="278.3" y2="62.7"></line> <line class="st1" x1="278.3" y1="62.7" x2="261.1" y2="55.5"></line> <line class="st1" x1="261.1" y1="55.5" x2="246.3" y2="66.8"></line> <line class="st1" x1="246.3" y1="66.8" x2="248.6" y2="85.2"></line> <line class="st1" x1="248.6" y1="85.2" x2="265.8" y2="92.4"></line> <line class="st1" x1="248.5" y1="83.7" x2="264.3" y2="91.8"></line> <line class="st1" x1="264.3" y1="91.8" x2="279.4" y2="82.1"></line> <path class="st1" d="M279.4,82.1l-0.9-17.8 M278.5,64.3l-15.9-8.2 M262.6,56.1l-15,9.7 M247.6,65.8l0.9,17.8 M248.4,82.2l0.4-17.2 M248.8,65l15.1-8.2 M263.9,56.8l14.6,9 M278.5,65.8l-0.4,17.2 M278.1,82.9L263,91.1 M263,91.1l-14.6-9 M250.1,64.3l15-6.8 M265.1,57.6l13.4,9.6 M278.5,67.2l-1.7,16.4 M276.9,83.6l-15,6.8 M261.8,90.4l-13.4-9.6 M248.4,80.7l1.7-16.4 M251.3,63.8 l14.9-5.4 M266.2,58.4l12.1,10.2 M278.4,68.6l-2.8,15.6 M275.6,84.2l-14.9,5.4 M260.7,89.6l-12.1-10.2 M248.6,79.4l2.8-15.6 M23.5-64.6v277.1 M43.5-76.1l-20,265.6 M25.1,167.3L63.5-85.8 M28.3,146.2l55-239.8 M102.9-99.6l-70,225.8 M122.1-103.9 L38.7,107.4 M45.7,89.8l95.2-196.5 M62.4,58.3l87,182 M71.9,44.5l70.2,180.6 M136.3,210.1L82,31.9 M131.8,195.2L92.6,20.5 M103.6,10.4l24.9,170.2 M114.8,1.5l11.6,164.9 M125.5,152.7l0.8-158.9 M125.5,139.5l12.2-152.2 M149.3-18.2l-22.7,145"></path> </g> </g> <g id="Слой_2"> <g> <g> <path class="st2" d="M127.3,70.4c-1.3,0-2.3,1-2.3,2.3V108c-1.1,0.8-2.1,1.5-3.3,2.1c-2.5,1.5-5.2,2.8-8,3.8 c-1.4,0.5-2.8,1-4.2,1.5c-3.4,1-6.9,1.8-10.4,2.4l0.7-15.3c0.1-0.9-0.6-1.7-1.5-1.8c-0.9-0.1-1.7,0.6-1.8,1.5l-0.7,16 c-1.3,0.1-2.6,0.3-3.9,0.3c-2.2,0.1-4.5,0.1-6.7,0c-3.7-0.2-7.5-0.7-11.1-1.5c-1-0.3-2.1-0.6-3.1-0.9l2.7-10.1 c0.2-0.7-0.2-1.5-1-1.7s-1.5,0.2-1.7,1l-2.7,9.8c-0.9-0.4-1.8-0.8-2.7-1.2c-2.7-1.3-5.3-2.9-7.7-4.7c-1.8-1.3-3.5-2.8-5.1-4.4 c-0.5-0.5-1-1.1-1.5-1.6c-0.5-0.6-1-1.1-1.4-1.7c-0.1-0.1-0.1-0.1-0.2-0.2l5.8-5.3c0.4-0.4,0.4-1,0.1-1.4l-0.1-0.1 c-0.4-0.4-1-0.4-1.4-0.1l-5.6,5.1c-0.8-1.2-1.5-2.5-2.1-3.8c-1.2-2.7-2-5.6-2.2-8.6c-0.1-1.5-0.1-3,0.1-4.5 c0.1-0.7,0.2-1.5,0.3-2.2c0.1-0.3,0.1-0.6,0.2-0.9c0,0,0,0,0.1,0l4.4,0.7c0.4,0.1,0.9-0.2,1-0.7c0.1-0.4-0.2-0.9-0.7-1L45.3,78 c0.4-1.3,0.9-2.7,1.5-3.9c0.7-1.4,1.4-2.7,2.3-3.9c0.9-1.2,1.9-2.3,3.1-3.2l0.5-0.3l0.5-0.3l0.2-0.1l0.2-0.1 c0.2-0.1,0.3-0.2,0.5-0.3c0.1,0,0.1,0,0.2-0.1c0,0,0,0,0,0l1.6,3c0.2,0.3,0.5,0.4,0.8,0.3l0,0c0.3-0.2,0.4-0.5,0.3-0.8l-1.5-2.9 c0.3-0.1,0.5-0.2,0.8-0.2c1.5-0.4,3-0.5,4.5-0.3c0.7,0.1,1.5,0.3,2.2,0.5c0.4,0.1,0.7,0.2,1.1,0.4c0.2,0.1,0.3,0.2,0.5,0.2 c0.1,0,0.2,0.1,0.2,0.1l0.2,0.2c0.3,0.2,0.6,0.4,0.9,0.7c0.3,0.2,0.6,0.5,0.8,0.8c0.5,0.5,1,1.2,1.3,1.9c0.5,1.1,0.8,2.3,0.9,3.5 c0,0,0,0,0,0c0-0.1,0-0.2-0.1-0.2c0-0.1-0.1-0.2-0.1-0.3c0-0.1-0.1-0.2-0.1-0.3c0-0.1-0.1-0.2-0.1-0.2c0,0,0-0.1-0.1-0.1 c0,0-0.1-0.1-0.1-0.1c0-0.1-0.1-0.2-0.1-0.2c-0.1-0.1-0.1-0.2-0.2-0.2c-0.1-0.1-0.1-0.1-0.2-0.2c-0.1-0.1-0.1-0.1-0.2-0.2 c-0.1-0.1-0.1-0.1-0.2-0.2c-0.1-0.1-0.2-0.1-0.2-0.2c-0.1-0.1-0.1-0.1-0.2-0.1c0,0-0.1-0.1-0.1-0.1c0,0-0.1,0-0.1-0.1 c-0.1,0-0.2-0.1-0.2-0.1c-0.1,0-0.2-0.1-0.3-0.1c-0.1,0-0.2-0.1-0.3-0.1c-0.1,0-0.2,0-0.2-0.1c-0.1,0-0.2,0-0.3-0.1 c-0.1,0-0.2,0-0.3,0c-0.1,0-0.2,0-0.3,0c0,0-0.1,0-0.1,0s-0.1,0-0.1,0c-0.1,0-0.2,0-0.3,0c-0.1,0-0.2,0-0.3,0 c-0.1,0-0.2,0-0.3,0.1c-0.1,0-0.2,0-0.2,0.1c-0.1,0-0.2,0.1-0.3,0.1c-0.1,0-0.2,0.1-0.3,0.1c-0.1,0-0.2,0.1-0.2,0.1 c0,0-0.1,0-0.1,0.1s-0.1,0.1-0.1,0.1c-0.1,0-0.2,0.1-0.2,0.1c-0.1,0-0.1,0.1-0.2,0.1c-1.1,0.7-2.2,1.5-3,2.6 c-0.1,0.1-0.2,0.3-0.3,0.4c0,0,0,0,0,0l-2-1.3c-0.2-0.1-0.5-0.1-0.6,0.1s-0.1,0.5,0.1,0.6l2,1.3c0,0,0.1,0,0.1,0 c-0.1,0.3-0.3,0.6-0.4,0.9c-0.1,0.4-0.2,0.8-0.3,1.1c-0.1,0.4-0.1,0.8-0.1,1.2l0,0.3c0,0.1,0,0.2,0,0.3c0,0.2,0,0.4,0,0.6 c0,0.4,0.1,0.8,0.2,1.2c0.2,0.8,0.4,1.5,0.7,2.2c0.1,0.3,0.3,0.6,0.4,0.9c-0.1,0-0.2,0-0.3,0.1l-3.3,1.6 c-0.3,0.2-0.5,0.6-0.3,0.9c0.2,0.3,0.6,0.5,0.9,0.3l3.3-1.6c0.1-0.1,0.2-0.1,0.2-0.2c0.4,0.7,0.9,1.4,1.5,2 c0.4,0.4,0.7,0.7,1.1,1.1c0,0,0,0,0,0l0,0c0.2,0.2,0.4,0.3,0.6,0.5c0.2,0.1,0.3,0.2,0.5,0.3l0.2,0.2l0.3,0.1l0.5,0.3l0.5,0.3 c1.1,0.5,2.2,0.9,3.4,1.1c0.2,0,0.4,0.1,0.6,0.1c-0.1,0.1-0.1,0.2-0.1,0.3l-1,5.8c-0.1,0.6,0.3,1.1,0.8,1.2 c0.6,0.1,1.1-0.3,1.2-0.8l1-5.8c0-0.1,0-0.3,0-0.4c1.1,0.1,2.3,0.1,3.4,0.1c1.6-0.1,3.1-0.3,4.7-0.6c0.8-0.2,1.5-0.4,2.3-0.6 c1.3-0.4,2.5-0.9,3.7-1.5c0,0,0,0,0,0l4.1,7.3c0.3,0.6,1.1,0.8,1.7,0.4l0,0c0.6-0.3,0.8-1.1,0.4-1.7l-4.1-7.3 c0.2-0.1,0.4-0.2,0.6-0.3c2.7-1.7,5-3.9,6.9-6.4c0.9-1.3,1.8-2.6,2.6-4c0.6-1.2,1.2-2.4,1.7-3.6l9.7,6.6c0.7,0.5,1.7,0.4,2.2-0.3 l0,0c0.5-0.7,0.4-1.6-0.3-2.1l-10.5-7.1c0,0,0,0,0,0c0.7-2.2,1.2-4.6,1.5-6.9c0.3-2.3,0.5-4.7,0.5-7c0-0.8,0-1.6,0-2.4 c0-0.8-0.1-1.6-0.1-2.4c-0.2-2.4-0.6-4.7-1.2-7c-0.2-0.8-0.4-1.5-0.6-2.3l17.7,10.9c0.8,0.5,2,0.3,2.5-0.6l0.1-0.1 c0.6-0.9,0.3-2-0.5-2.6L97.5,35.7c-1.3-3.2-2.9-6.3-4.7-9.3c-2.9-4.7-6.2-9.1-10-13.1c-0.5-0.6-1.1-1.1-1.7-1.7 c-0.6-0.6-1.1-1.1-1.7-1.6c-1.7-1.6-3.6-3.1-5.5-4.6c-1.3-0.9-2.6-1.8-4-2.7c-1.4-0.8-2.8-1.6-4.3-2.3c0,0,0,0-0.1,0 c-0.2-0.1-0.4-0.1-0.7-0.2c-0.7-0.3-1.4-0.3-2.1,0.1L31.3,18.5c-1.1,0.6-1.5,2-0.8,3.1h0c0.6,1.1,2,1.5,3.1,0.8L64.2,4.8 c3.8,1.7,7.4,4,10.8,6.7c1.2,0.9,2.3,1.9,3.4,2.9c1.1,1,2.2,2.1,3.2,3.1c1.4,1.5,2.8,3.1,4.1,4.7l-13.6,7.1 c-0.8,0.4-1.2,1.4-0.8,2.2c0.4,0.8,1.4,1.2,2.2,0.8L87.6,25c0.8,1.1,1.5,2.2,2.3,3.3c1.6,2.5,3.1,5.1,4.4,7.8 c1.3,2.7,2.4,5.5,3.2,8.4c0.3,1,0.5,2.1,0.8,3.1l-10.1,2.7c-0.7,0.2-1.2,0.9-1,1.7c0.2,0.7,0.9,1.2,1.7,1l9.8-2.6 c0.1,1,0.3,1.9,0.3,2.9c0.2,3,0.1,6-0.2,9c-0.2,1.5-0.4,3-0.7,4.4c-0.3,1.5-0.7,2.9-1.2,4.3c-0.3,0.8-0.6,1.6-0.9,2.3l-7.5-2.4 c-0.5-0.2-1.1,0.1-1.3,0.7l0,0.1c-0.2,0.5,0.1,1.1,0.7,1.3l7.2,2.3c-0.7,1.3-1.4,2.5-2.2,3.7c-1.7,2.4-3.9,4.6-6.3,6.2 c-1.2,0.8-2.5,1.6-3.9,2.2c-1,0.4-2,0.8-3,1.1c0,0,0,0,0,0L78,84.2c-0.2-0.4-0.6-0.6-1.1-0.5s-0.6,0.6-0.5,1.1l1.6,4.1 c-1.4,0.3-2.8,0.5-4.2,0.7c-1.5,0.1-3,0.1-4.5-0.1c-1.5-0.2-3-0.5-4.3-1.1l-0.5-0.2l-0.5-0.3l-0.2-0.1l-0.2-0.1 c-0.2-0.1-0.3-0.2-0.5-0.3c0,0-0.1-0.1-0.1-0.1c0,0,0,0,0,0l1.8-2.9c0.2-0.3,0.1-0.7-0.2-0.8l0,0c-0.3-0.2-0.7-0.1-0.8,0.2 L62,86.3c-0.2-0.2-0.4-0.4-0.6-0.5c-1-1.1-1.9-2.3-2.5-3.7c-0.3-0.7-0.5-1.4-0.7-2.2c-0.1-0.4-0.2-0.7-0.2-1.1c0-0.2,0-0.4,0-0.6 c0-0.1,0-0.2,0-0.3l0-0.3c0-0.8,0.1-1.5,0.3-2.2c0.2-0.7,0.5-1.4,1-2c0.7-1,1.6-1.8,2.6-2.5c0,0,0,0,0,0 c-0.1,0.1-0.1,0.1-0.2,0.2c-0.1,0.1-0.1,0.1-0.2,0.2c-0.1,0.1-0.1,0.2-0.2,0.2c-0.1,0.1-0.1,0.1-0.1,0.2c0,0-0.1,0.1-0.1,0.1 c0,0,0,0.1-0.1,0.1c0,0.1-0.1,0.2-0.1,0.2c0,0.1-0.1,0.2-0.1,0.3c0,0.1-0.1,0.2-0.1,0.3c0,0.1,0,0.2-0.1,0.2c0,0.1,0,0.2-0.1,0.3 c0,0.1,0,0.2,0,0.3c0,0.1,0,0.2,0,0.3c0,0,0,0.1,0,0.1s0,0.1,0,0.1c0,0.1,0,0.2,0,0.3c0,0.1,0,0.2,0,0.3c0,0.1,0,0.2,0.1,0.3 c0,0.1,0,0.2,0.1,0.2c0,0.1,0.1,0.2,0.1,0.3c0,0.1,0.1,0.2,0.1,0.3c0,0.1,0.1,0.2,0.1,0.2c0,0,0,0.1,0.1,0.1s0.1,0.1,0.1,0.1 c0,0.1,0.1,0.2,0.1,0.2c0.1,0.1,0.1,0.2,0.2,0.2c0.1,0.1,0.1,0.1,0.2,0.2c0.1,0.1,0.1,0.1,0.2,0.2c0.1,0.1,0.1,0.1,0.2,0.2 c0.1,0.1,0.2,0.1,0.2,0.2c0.1,0.1,0.1,0.1,0.2,0.1c0,0,0.1,0.1,0.1,0.1s0.1,0,0.1,0.1c0.1,0,0.2,0.1,0.2,0.1 c0.1,0,0.1,0.1,0.2,0.1c1.2,0.6,2.4,1.1,3.8,1.3c0.2,0,0.4,0,0.5,0c0,0,0,0,0,0l-0.2,2.4c0,0.2,0.2,0.4,0.4,0.4 c0.2,0,0.4-0.2,0.4-0.4l0.2-2.4c0,0,0-0.1,0-0.1c0.3,0,0.7-0.1,1-0.1c0.8-0.2,1.5-0.5,2.2-0.8l0.3-0.1c0.1,0,0.2-0.1,0.3-0.1 c0.2-0.1,0.3-0.2,0.5-0.3c0.3-0.2,0.6-0.5,0.9-0.7c0.6-0.5,1.1-1.1,1.6-1.7c0.2-0.3,0.4-0.5,0.6-0.8c0.1,0.1,0.1,0.2,0.2,0.2 l3,2.1c0.3,0.2,0.8,0.1,1-0.2s0.1-0.8-0.2-1l-3-2.1c-0.1-0.1-0.2-0.1-0.3-0.1c0.2-0.4,0.4-0.8,0.6-1.1c0.2-0.4,0.3-0.7,0.4-1.1 c0.1-0.4,0.2-0.8,0.3-1.1c0-0.1,0-0.2,0.1-0.4c0,0,0,0,0,0l0,0c0-0.3,0.1-0.5,0.1-0.8c0-0.2,0-0.4,0-0.6l0-0.3l0-0.3l0-0.6l0-0.6 c-0.1-1.4-0.4-2.7-0.9-4c0.1,0,0.2,0,0.3-0.1l5.5-2.1c0.5-0.2,0.8-0.8,0.6-1.3s-0.8-0.8-1.3-0.6l-5.5,2.1c-0.1,0-0.2,0.1-0.3,0.2 c-0.5-1-1-2-1.6-3c-0.9-1.3-1.8-2.6-2.8-3.7c-1.4-1.6-3-3-4.8-4.2c0,0,0,0,0,0l4.3-7.2c0.3-0.6,0.1-1.3-0.4-1.7l0,0 c-0.6-0.3-1.3-0.1-1.7,0.4l-4.2,7.2c-0.2-0.1-0.4-0.2-0.6-0.3c-2.8-1.5-5.9-2.4-9-2.8c-1.6-0.2-3.2-0.3-4.7-0.2 c-1.3,0-2.6,0.2-4,0.4l0.9-11.7c0.1-0.9-0.5-1.6-1.3-1.8l0,0c-0.8-0.1-1.6,0.5-1.7,1.4l-0.9,12.6c0,0,0,0,0,0 c-2.3,0.5-4.5,1.2-6.7,2.1c-2.9,1.2-5.7,2.6-8.4,4.3c-2.7,1.7-5.2,3.7-7.5,5.9c-0.6,0.6-1.1,1.1-1.7,1.7l0.6-20.8 c0-1-0.8-1.8-1.8-1.9l-0.1,0c-1,0-1.9,0.7-1.9,1.7l-0.6,25.6c-2.1,2.8-4,5.7-5.7,8.7c-3,5.5-5.4,11.4-7,17.5 c-0.4,1.5-0.7,3.1-1,4.6c-0.4,2.3-0.8,4.7-0.9,7.1c-0.2,2.4-0.2,4.8,0,7.2c0,0,0,0.1,0,0.1c0,0.2,0.1,0.5,0.2,0.7 c0.1,0.7,0.5,1.4,1.1,1.8l31.5,18.2c1.1,0.6,2.5,0.3,3.1-0.8c0.6-1.1,0.3-2.5-0.8-3.1L5.3,109.1c-0.6-5.6,0-11.5,1.3-17.1 c0.8-3.5,1.8-6.9,3.1-10.2l13,8.2c0.8,0.5,1.8,0.3,2.3-0.4c0.5-0.8,0.3-1.8-0.4-2.3L11,78.8c0.5-1.2,1.1-2.4,1.7-3.6 c0.7-1.3,1.4-2.6,2.2-3.9c2.3-3.9,5-7.5,8.1-10.7c0.7-0.8,1.5-1.5,2.3-2.2l7.4,7.4c0.5,0.5,1.4,0.5,1.9,0c0.5-0.5,0.5-1.4,0-1.9 l-7.2-7.2c0.8-0.6,1.6-1.2,2.4-1.7c0.6-0.4,1.3-0.8,1.9-1.2c1.9-1.2,3.9-2.2,6-3.1c2.7-1.2,5.6-2.1,8.5-2.7 c0.8-0.2,1.6-0.3,2.5-0.4l1.7,7.7c0.1,0.5,0.7,0.9,1.2,0.8l0.1,0c0.5-0.1,0.9-0.7,0.8-1.2l-1.6-7.4c1.4-0.1,2.9-0.1,4.3,0.1 c3,0.3,5.9,1.1,8.6,2.4c1.3,0.6,2.6,1.4,3.8,2.3c0.8,0.6,1.6,1.3,2.4,2c0,0,0,0,0,0L67,57.4c-0.3,0.3-0.2,0.9,0.1,1.2 c0.3,0.3,0.9,0.2,1.2-0.1l2.7-3.4c0.4,0.5,0.9,1,1.3,1.5c0.5,0.6,0.9,1.2,1.4,1.8c0.2,0.3,0.4,0.6,0.6,0.9c0.6,1,1.1,2,1.6,3 c0.6,1.4,1,2.8,1.2,4.3l0.1,0.6l0,0.6l0,0.3l0,0.3c0,0.2,0,0.4,0,0.6c0,0.1,0,0.1,0,0.2c0,0,0,0,0,0l-3.4-0.2 c-0.3,0-0.6,0.2-0.6,0.6l0,0c0,0.3,0.2,0.6,0.6,0.6l3.3,0.2c-0.1,0.3-0.1,0.5-0.2,0.8c-0.1,0.4-0.2,0.7-0.4,1.1 c-0.4,1-1,2-1.6,2.9c-0.5,0.6-1,1.2-1.5,1.7c-0.3,0.3-0.6,0.5-0.9,0.7c-0.1,0.1-0.3,0.2-0.5,0.3c-0.1,0.1-0.2,0.1-0.2,0.1 L71.4,78c-0.7,0.3-1.4,0.6-2.1,0.8c-0.7,0.2-1.5,0.2-2.3,0.2c-0.4,0-0.8-0.1-1.1-0.2c-0.7-0.2-1.5-0.4-2.2-0.8 c-0.1,0-0.1-0.1-0.2-0.1c0,0,0,0,0,0c0.1,0,0.2,0,0.2,0.1c0.1,0,0.2,0,0.3,0.1c0.1,0,0.2,0,0.3,0c0.1,0,0.2,0,0.3,0 c0,0,0.1,0,0.1,0s0.1,0,0.1,0c0.1,0,0.2,0,0.3,0c0.1,0,0.2,0,0.3,0c0.1,0,0.2,0,0.3-0.1c0.1,0,0.2,0,0.2-0.1 c0.1,0,0.2-0.1,0.3-0.1c0.1,0,0.2-0.1,0.3-0.1c0.1,0,0.2-0.1,0.2-0.1c0,0,0.1,0,0.1-0.1c0,0,0.1-0.1,0.1-0.1 c0.1,0,0.2-0.1,0.2-0.1c0.1-0.1,0.2-0.1,0.2-0.2c0.1-0.1,0.1-0.1,0.2-0.2c0.1-0.1,0.1-0.1,0.2-0.2c0.1-0.1,0.1-0.1,0.2-0.2 c0.1-0.1,0.1-0.2,0.2-0.2c0.1-0.1,0.1-0.1,0.1-0.2c0,0,0.1-0.1,0.1-0.1s0-0.1,0.1-0.1c0-0.1,0.1-0.2,0.1-0.2 c0-0.1,0.1-0.2,0.1-0.3c0-0.1,0.1-0.2,0.1-0.3c0-0.1,0-0.2,0.1-0.2c0-0.1,0-0.2,0.1-0.3c0-0.1,0-0.2,0-0.3c0-0.1,0-0.2,0-0.3 c0,0,0-0.1,0-0.1s0-0.1,0-0.1c0-0.1,0-0.2,0-0.3c0-0.1,0-0.1,0-0.2c0-1.3-0.2-2.7-0.8-3.9c-0.1-0.2-0.2-0.3-0.2-0.5c0,0,0,0,0,0 l2.2-1c0.2-0.1,0.3-0.4,0.2-0.6s-0.4-0.3-0.6-0.2l-2.2,1c0,0,0,0-0.1,0.1c-0.2-0.3-0.4-0.5-0.6-0.8c-0.5-0.6-1.1-1.1-1.8-1.5 L65,65.8c-0.1-0.1-0.2-0.1-0.3-0.2c-0.2-0.1-0.3-0.2-0.5-0.3c-0.4-0.2-0.7-0.3-1.1-0.4c-0.4-0.1-0.7-0.2-1.1-0.3 c-0.4-0.1-0.8-0.2-1.1-0.2c-0.3-0.1-0.7-0.1-1-0.1c0-0.1,0.1-0.2,0.1-0.3l0.3-3.6c0-0.4-0.3-0.7-0.7-0.7c-0.4,0-0.7,0.3-0.7,0.7 l-0.3,3.6c0,0.1,0,0.2,0.1,0.3c-0.8,0-1.6,0.1-2.4,0.3c-0.5,0.1-1,0.3-1.5,0.5c0,0,0,0,0,0l0,0c-0.2,0.1-0.5,0.2-0.7,0.3 c-0.2,0.1-0.4,0.2-0.5,0.3l-0.3,0.1l-0.3,0.1l-0.5,0.3l-0.5,0.3c-0.3,0.2-0.6,0.5-0.9,0.7c-0.6,0.5-1.2,1.1-1.7,1.6 c-0.1,0.1-0.2,0.3-0.4,0.4c-0.1-0.1-0.1-0.2-0.2-0.3L44,65.2c-0.4-0.4-1.1-0.3-1.4,0.1s-0.3,1.1,0.1,1.4l4.6,3.7 c0.1,0.1,0.3,0.2,0.4,0.2c-0.7,0.9-1.3,1.9-1.8,2.9c-0.7,1.4-1.3,2.8-1.8,4.3c-0.6,2-1.1,4.1-1.2,6.2c0,0,0,0,0,0l-8.4-0.1 c-0.7,0-1.2,0.5-1.2,1.2v0c0,0.7,0.5,1.2,1.2,1.2l8.3,0.1c0,0.2,0,0.4,0,0.6c0.1,3.2,0.9,6.3,2.1,9.2c0.6,1.5,1.4,2.9,2.2,4.2 c0.7,1.1,1.5,2.2,2.3,3.3l-10.5,5.1c-0.8,0.3-1.2,1.2-0.9,2l0,0c0.3,0.8,1.2,1.1,2,0.8l11.4-5.5c0,0,0,0,0,0 c0.5,0.6,1.1,1.1,1.6,1.7c1.1,1.1,2.3,2.1,3.6,3.1c2.5,1.9,5.1,3.7,7.9,5.1c1.4,0.8,2.9,1.4,4.3,2c1.5,0.6,3,1.1,4.5,1.5 c0.8,0.2,1.5,0.4,2.3,0.6l-18.3,9.9c-0.9,0.5-1.2,1.6-0.7,2.5l0.1,0.1c0.5,0.9,1.6,1.3,2.5,0.8l22.5-12.3 c3.4,0.4,6.9,0.6,10.4,0.5c6.3-0.1,12.6-1,18.7-2.7c6.1-1.7,12-4.1,17.4-7.8c0,0,0,0,0.1,0c0.2-0.1,0.3-0.3,0.5-0.5 c0.6-0.4,1-1.1,1-1.9V72.7C129.6,71.4,128.6,70.4,127.3,70.4z"></path> <path class="st3" d="M128.9,37.9C128.9,37.9,128.9,37.9,128.9,37.9c0-0.3-0.1-0.5-0.2-0.7c-0.1-0.7-0.5-1.4-1.1-1.8L96.1,17.2 C95,16.6,93.6,17,93,18.1c-0.6,1.1-0.3,2.5,0.8,3.1l30.5,17.6c0.3,2.7,0.3,5.5,0.1,8.3c-0.2,2.9-0.7,5.9-1.4,8.8 c-0.8,3.5-1.8,6.9-3.1,10.2l-13-8.2c-0.8-0.5-1.8-0.3-2.3,0.4c-0.5,0.8-0.3,1.8,0.4,2.3l13.5,8.6c-0.5,1.2-1.1,2.4-1.7,3.6 c-2.7,5.3-6.1,10.4-10.2,14.7c-0.7,0.8-1.5,1.5-2.3,2.2L97,82.3c-0.5-0.5-1.4-0.5-1.9,0c-0.5,0.5-0.5,1.4,0,1.9l7.2,7.2 c-0.8,0.6-1.6,1.2-2.4,1.7c-2.5,1.7-5.2,3.1-7.9,4.3c-2.7,1.2-5.6,2.1-8.5,2.7c-0.8,0.2-1.6,0.3-2.5,0.4L79.3,93 c-0.1-0.5-0.7-0.9-1.2-0.8l-0.1,0c-0.5,0.1-0.9,0.7-0.8,1.2l1.6,7.4c-1.4,0.1-2.9,0.1-4.3-0.1c-3-0.3-5.9-1.1-8.6-2.4 c-2.3-1.1-4.4-2.6-6.2-4.3c0,0,0,0,0,0l2.8-3.5c0.3-0.3,0.2-0.9-0.1-1.2c-0.3-0.3-0.9-0.2-1.2,0.1l-2.7,3.4c-1-1-1.8-2.1-2.6-3.3 c-0.9-1.2-1.6-2.6-2.2-3.9c-0.6-1.4-1-2.8-1.2-4.3l-0.1-0.6l0-0.6l0-0.3l0-0.3c0-0.2,0-0.4,0-0.6c0-0.1,0-0.1,0-0.2c0,0,0,0,0,0 l3.4,0.2c0.3,0,0.6-0.2,0.6-0.6l0,0c0-0.3-0.2-0.6-0.6-0.6l-3.3-0.2c0.1-0.3,0.1-0.5,0.2-0.8c0.4-1.4,1.1-2.8,2-4 c0.5-0.6,1-1.2,1.5-1.7c0.3-0.3,0.6-0.5,0.9-0.7c0.1-0.1,0.3-0.2,0.5-0.3c0.1-0.1,0.2-0.1,0.2-0.1l0.3-0.1c0.3-0.2,0.7-0.3,1-0.5 c0.4-0.1,0.7-0.3,1.1-0.4c0.4-0.1,0.7-0.2,1.1-0.2c0.4,0,0.8,0,1.1,0c1.1,0.1,2.2,0.5,3.3,0.9c0.1,0,0.1,0.1,0.2,0.1c0,0,0,0,0,0 c-0.1,0-0.2,0-0.2-0.1c-0.1,0-0.2,0-0.3-0.1c-0.1,0-0.2,0-0.3,0c-0.1,0-0.2,0-0.3,0c0,0-0.1,0-0.1,0s-0.1,0-0.1,0 c-0.1,0-0.2,0-0.3,0c-0.1,0-0.2,0-0.3,0c-0.1,0-0.2,0-0.3,0.1c-0.1,0-0.2,0-0.2,0.1c-0.1,0-0.2,0.1-0.3,0.1 c-0.1,0-0.2,0.1-0.3,0.1c-0.1,0-0.2,0.1-0.2,0.1c0,0-0.1,0-0.1,0.1s-0.1,0.1-0.1,0.1c-0.1,0-0.2,0.1-0.2,0.1 c-0.1,0.1-0.2,0.1-0.2,0.2c-0.1,0.1-0.1,0.1-0.2,0.2c-0.1,0.1-0.1,0.1-0.2,0.2c-0.1,0.1-0.1,0.1-0.2,0.2 c-0.1,0.1-0.1,0.2-0.2,0.2c-0.1,0.1-0.1,0.1-0.1,0.2c0,0-0.1,0.1-0.1,0.1c0,0,0,0.1-0.1,0.1c0,0.1-0.1,0.2-0.1,0.2 c0,0.1-0.1,0.2-0.1,0.3c0,0.1-0.1,0.2-0.1,0.3c0,0.1,0,0.2-0.1,0.2c0,0.1,0,0.2-0.1,0.3c0,0.1,0,0.2,0,0.3c0,0.1,0,0.2,0,0.3 c0,0,0,0.1,0,0.1s0,0.1,0,0.1c0,0.1,0,0.2,0,0.3c0,0.1,0,0.1,0,0.2c0,1.3,0.2,2.7,0.8,3.9c0.1,0.2,0.2,0.3,0.2,0.5c0,0,0,0,0,0 l-2.2,1c-0.2,0.1-0.3,0.4-0.2,0.6c0.1,0.2,0.4,0.3,0.6,0.2l2.2-1c0,0,0,0,0.1-0.1c0.2,0.3,0.4,0.5,0.6,0.8 c0.5,0.6,1.1,1.1,1.8,1.5l0.2,0.2c0.1,0.1,0.2,0.1,0.3,0.2c0.2,0.1,0.3,0.2,0.5,0.3c0.4,0.2,0.7,0.3,1.1,0.4 c0.7,0.3,1.5,0.4,2.3,0.6c0.3,0.1,0.7,0.1,1,0.1c0,0.1-0.1,0.2-0.1,0.3l-0.3,3.6c0,0.4,0.3,0.7,0.7,0.7c0.4,0,0.7-0.3,0.7-0.7 l0.3-3.6c0-0.1,0-0.2-0.1-0.3c0.8,0,1.6-0.1,2.4-0.3c0.5-0.1,1-0.3,1.5-0.5c0,0,0,0,0,0l0,0c0.2-0.1,0.5-0.2,0.7-0.3 c0.2-0.1,0.4-0.2,0.5-0.3l0.3-0.1l0.3-0.1l0.5-0.3l0.5-0.3c0.7-0.4,1.3-0.9,1.8-1.5c0.4-0.4,0.8-0.8,1.2-1.3 c0.1,0.1,0.1,0.2,0.2,0.3l4.6,3.7c0.4,0.4,1.1,0.3,1.4-0.1c0.4-0.4,0.3-1.1-0.1-1.4l-4.6-3.7c-0.1-0.1-0.3-0.2-0.4-0.2 c0.2-0.3,0.4-0.6,0.6-0.9c0.4-0.7,0.8-1.3,1.2-2c0.4-0.7,0.7-1.4,1-2.1s0.6-1.5,0.8-2.2c0.6-2,1.1-4.1,1.2-6.2h0l8.4,0.1 c0.7,0,1.2-0.5,1.2-1.2v0c0-0.7-0.5-1.2-1.2-1.2l-8.3-0.1c0-0.2,0-0.4,0-0.6c-0.1-3.2-0.9-6.3-2.1-9.2c-0.6-1.5-1.4-2.9-2.2-4.2 c-0.7-1.1-1.5-2.2-2.3-3.3l10.5-5.1c0.8-0.3,1.2-1.2,0.9-2l0,0c-0.3-0.8-1.2-1.1-2-0.8l-11.4,5.5c0,0,0,0,0,0 c-0.5-0.6-1.1-1.1-1.6-1.7c-1.1-1.1-2.3-2.1-3.6-3.1c-1.9-1.5-3.8-2.8-5.8-4c-0.7-0.4-1.4-0.8-2.1-1.2c-2.1-1.1-4.3-2.1-6.6-2.8 c-0.8-0.3-1.5-0.5-2.3-0.7c-0.8-0.2-1.5-0.4-2.3-0.6l18.3-9.9c0.9-0.5,1.2-1.6,0.7-2.5L73,15c-0.5-0.9-1.6-1.3-2.5-0.8L48,26.5 c-3.4-0.4-6.9-0.6-10.4-0.5c-6.3,0.1-12.6,1-18.7,2.7c-6.1,1.7-12,4.1-17.4,7.8c0,0,0,0-0.1,0C1.3,36.7,1.1,36.8,1,37 c-0.6,0.4-1,1.1-1,1.9v36.3c0,1.3,1,2.3,2.3,2.3s2.3-1,2.3-2.3V40c4.6-3.3,9.9-5.7,15.5-7.4c3.4-1,6.9-1.8,10.4-2.4l-0.7,15.3 c-0.1,0.9,0.6,1.7,1.5,1.8c0.9,0.1,1.7-0.6,1.8-1.5l0.7-16c1.3-0.1,2.6-0.3,3.9-0.3c3-0.2,6-0.1,9,0.1c3,0.2,5.9,0.7,8.8,1.4 c0.7,0.2,1.4,0.4,2.2,0.6c0.3,0.1,0.6,0.2,0.9,0.3l-2.7,10.1c-0.2,0.7,0.2,1.5,1,1.7c0.7,0.2,1.5-0.2,1.7-1l2.7-9.8 c0.9,0.4,1.8,0.8,2.7,1.2c1.3,0.7,2.7,1.4,3.9,2.2c1.3,0.8,2.5,1.6,3.7,2.5c2.4,1.8,4.7,3.8,6.6,6c0.5,0.6,1.1,1.3,1.6,2L74,51.9 c-0.4,0.4-0.4,1-0.1,1.4l0.1,0.1c0.4,0.4,1,0.4,1.4,0.1l5.6-5.1c0.4,0.6,0.7,1.2,1.1,1.8c0.4,0.7,0.7,1.3,1,2 c0.6,1.4,1.1,2.8,1.5,4.2c0.4,1.4,0.6,2.9,0.7,4.4c0.2,2.5,0,5.1-0.6,7.6c0,0,0,0-0.1,0l-4.4-0.7c-0.4-0.1-0.9,0.2-1,0.7 c-0.1,0.4,0.2,0.9,0.7,1l4.3,0.7c-0.4,1.3-0.9,2.7-1.5,3.9c-0.7,1.4-1.4,2.7-2.3,3.9c-0.9,1.2-1.9,2.3-3.1,3.2l-0.5,0.3l-0.5,0.3 l-0.2,0.1l-0.2,0.1c-0.2,0.1-0.3,0.2-0.5,0.3c-0.1,0-0.1,0-0.2,0.1c0,0,0,0,0,0l-1.6-3c-0.2-0.3-0.5-0.4-0.8-0.3l0,0 c-0.3,0.2-0.4,0.5-0.3,0.8l1.5,2.9c-0.3,0.1-0.5,0.2-0.8,0.2c-1.5,0.4-3,0.5-4.5,0.3c-0.7-0.1-1.5-0.3-2.2-0.5 c-0.4-0.1-0.7-0.2-1.1-0.4c-0.2-0.1-0.3-0.2-0.5-0.2c-0.1,0-0.2-0.1-0.2-0.1l-0.2-0.2c-0.6-0.4-1.2-0.9-1.8-1.4 c-0.5-0.5-1-1.2-1.3-1.9c-0.5-1.1-0.8-2.3-0.9-3.5c0,0,0,0,0,0c0,0.1,0,0.2,0.1,0.2c0,0.1,0.1,0.2,0.1,0.3c0,0.1,0.1,0.2,0.1,0.3 c0,0.1,0.1,0.2,0.1,0.2c0,0,0,0.1,0.1,0.1s0.1,0.1,0.1,0.1c0,0.1,0.1,0.2,0.1,0.2c0.1,0.1,0.1,0.2,0.2,0.2 c0.1,0.1,0.1,0.1,0.2,0.2c0.1,0.1,0.1,0.1,0.2,0.2c0.1,0.1,0.1,0.1,0.2,0.2c0.1,0.1,0.2,0.1,0.2,0.2c0.1,0.1,0.1,0.1,0.2,0.1 c0,0,0.1,0.1,0.1,0.1s0.1,0,0.1,0.1c0.1,0,0.2,0.1,0.2,0.1c0.1,0,0.2,0.1,0.3,0.1c0.1,0,0.2,0.1,0.3,0.1c0.1,0,0.2,0,0.2,0.1 c0.1,0,0.2,0,0.3,0.1c0.1,0,0.2,0,0.3,0c0.1,0,0.2,0,0.3,0c0,0,0.1,0,0.1,0s0.1,0,0.1,0c0.1,0,0.2,0,0.3,0c0.1,0,0.2,0,0.3,0 c0.1,0,0.2,0,0.3-0.1c0.1,0,0.2,0,0.2-0.1c0.1,0,0.2-0.1,0.3-0.1c0.1,0,0.2-0.1,0.3-0.1c0.1,0,0.2-0.1,0.2-0.1c0,0,0.1,0,0.1-0.1 c0,0,0.1-0.1,0.1-0.1c0.1,0,0.2-0.1,0.2-0.1c0.1,0,0.1-0.1,0.2-0.1c1.1-0.7,2.2-1.5,3-2.6c0.1-0.1,0.2-0.3,0.3-0.4c0,0,0,0,0,0 l2,1.3c0.2,0.1,0.5,0.1,0.6-0.1s0.1-0.5-0.1-0.6l-2-1.3c0,0-0.1,0-0.1,0c0.1-0.3,0.3-0.6,0.4-0.9c0.2-0.7,0.4-1.5,0.4-2.3l0-0.3 c0-0.1,0-0.2,0-0.3c0-0.2,0-0.4,0-0.6c0-0.4-0.1-0.8-0.2-1.2c-0.2-0.8-0.4-1.5-0.7-2.2c-0.1-0.3-0.3-0.6-0.4-0.9 c0.1,0,0.2,0,0.3-0.1l3.3-1.6c0.3-0.2,0.5-0.6,0.3-0.9c-0.2-0.3-0.6-0.5-0.9-0.3l-3.3,1.6c-0.1,0.1-0.2,0.1-0.2,0.2 c-0.2-0.4-0.5-0.7-0.7-1.1c-0.2-0.3-0.5-0.6-0.8-0.9c-0.3-0.3-0.6-0.6-0.8-0.8c-0.1-0.1-0.2-0.2-0.3-0.2c0,0,0,0,0,0l0,0 c-0.2-0.2-0.4-0.3-0.6-0.5c-0.2-0.1-0.3-0.2-0.5-0.3l-0.2-0.2l-0.3-0.1l-0.5-0.3L64.9,59c-1.2-0.6-2.6-1-3.9-1.2 c0.1-0.1,0.1-0.2,0.1-0.3l1-5.8c0.1-0.6-0.3-1.1-0.8-1.2c-0.6-0.1-1.1,0.3-1.2,0.8l-1,5.8c0,0.1,0,0.3,0,0.4 c-1.1-0.1-2.3-0.1-3.4-0.1c-1.6,0.1-3.1,0.3-4.7,0.6c-2.1,0.4-4.1,1.1-6,2c0,0,0,0,0,0l-4.1-7.3c-0.3-0.6-1.1-0.8-1.7-0.4l0,0 c-0.6,0.3-0.8,1.1-0.4,1.7l4.1,7.3c-0.2,0.1-0.4,0.2-0.6,0.3c-2.7,1.7-5,3.9-6.9,6.4c-0.9,1.3-1.8,2.6-2.6,4 c-0.6,1.2-1.2,2.4-1.7,3.6L21.4,69c-0.7-0.5-1.7-0.4-2.2,0.3l0,0c-0.5,0.7-0.4,1.6,0.3,2.1L30,78.6c0,0,0,0,0,0 c-0.7,2.2-1.2,4.6-1.5,6.9c-0.4,3.1-0.6,6.3-0.5,9.4c0.1,2.4,0.4,4.8,0.8,7.1c0.2,0.8,0.3,1.5,0.5,2.3c0.2,0.8,0.4,1.5,0.7,2.3 L12.3,95.7c-0.8-0.5-2-0.3-2.5,0.6l-0.1,0.1c-0.6,0.9-0.3,2,0.5,2.6l21.9,13.4c0.1,0.3,0.2,0.6,0.4,0.9c1.3,2.9,2.7,5.7,4.4,8.4 c3.3,5.4,7.2,10.4,11.7,14.8c1.7,1.7,3.5,3.3,5.3,4.7c3.1,2.5,6.5,4.7,10.2,6.4c0,0,0,0,0.1,0c0.2,0.1,0.4,0.1,0.7,0.2 c0.7,0.3,1.5,0.3,2.1-0.1l31.5-18.2c1.1-0.6,1.5-2,0.8-3.1c-0.6-1.1-2-1.5-3.1-0.8l-30.5,17.6c-3.8-1.7-7.4-4-10.8-6.7 c-1.2-0.9-2.3-1.9-3.4-2.9c-1.1-1-2.2-2.1-3.2-3.1c-1.4-1.5-2.8-3.1-4.1-4.7l13.6-7.1c0.8-0.4,1.2-1.4,0.8-2.2s-1.4-1.2-2.2-0.8 L42,123c-0.8-1.1-1.5-2.2-2.3-3.3c-0.8-1.3-1.6-2.5-2.3-3.8c-2.2-3.9-4-8.1-5.3-12.4c-0.3-1-0.5-2.1-0.8-3.1l10.1-2.7 c0.7-0.2,1.2-0.9,1-1.7c-0.2-0.7-0.9-1.2-1.7-1l-9.8,2.6c-0.1-1-0.3-1.9-0.3-2.9c-0.2-3-0.1-6,0.2-9c0.3-3,1-5.9,1.9-8.8 c0.3-0.8,0.6-1.6,0.9-2.3l7.5,2.4c0.5,0.2,1.1-0.1,1.3-0.7l0-0.1c0.2-0.5-0.1-1.1-0.7-1.3l-7.2-2.3c0.3-0.6,0.6-1.2,1-1.8 c0.4-0.6,0.8-1.3,1.2-1.9c0.4-0.6,0.9-1.2,1.4-1.8c1.4-1.7,3.1-3.2,5-4.5c2.1-1.4,4.4-2.5,6.9-3.2c0,0,0,0,0,0l1.6,4.2 c0.2,0.4,0.6,0.6,1.1,0.5s0.6-0.6,0.5-1.1l-1.6-4.1c0.6-0.1,1.3-0.3,1.9-0.4c0.7-0.1,1.5-0.2,2.2-0.3c0.4,0,0.8,0,1.1-0.1 c0.7,0,1.5,0,2.2,0c0.4,0,0.8,0.1,1.2,0.1c0.7,0.1,1.5,0.2,2.2,0.4c0.7,0.2,1.4,0.4,2.1,0.7l0.5,0.2l0.5,0.3l0.2,0.1l0.2,0.1 c0.2,0.1,0.3,0.2,0.5,0.3c0,0,0.1,0.1,0.1,0.1c0,0,0,0,0,0l-1.8,2.9c-0.2,0.3-0.1,0.7,0.2,0.8l0,0c0.3,0.2,0.7,0.1,0.8-0.2 l1.8-2.8c0.2,0.2,0.4,0.4,0.6,0.5c1,1.1,1.9,2.3,2.5,3.7c0.3,0.7,0.5,1.4,0.7,2.2c0.1,0.4,0.2,0.7,0.2,1.1c0,0.2,0,0.4,0,0.6 c0,0.1,0,0.2,0,0.3l0,0.3c0,0.8-0.1,1.5-0.3,2.2c-0.2,0.7-0.5,1.4-1,2c-0.2,0.3-0.5,0.6-0.7,0.9c-0.6,0.6-1.2,1.1-1.9,1.6 c0,0,0,0,0,0c0.1-0.1,0.1-0.1,0.2-0.2c0.1-0.1,0.1-0.1,0.2-0.2c0.1-0.1,0.1-0.2,0.2-0.2c0.1-0.1,0.1-0.1,0.1-0.2 c0,0,0.1-0.1,0.1-0.1s0-0.1,0.1-0.1c0-0.1,0.1-0.2,0.1-0.2c0-0.1,0.1-0.2,0.1-0.3c0-0.1,0.1-0.2,0.1-0.3c0-0.1,0-0.2,0.1-0.2 c0-0.1,0-0.2,0.1-0.3c0-0.1,0-0.2,0-0.3c0-0.1,0-0.2,0-0.3c0,0,0-0.1,0-0.1s0-0.1,0-0.1c0-0.1,0-0.2,0-0.3c0-0.1,0-0.2,0-0.3 c0-0.1,0-0.2-0.1-0.3c0-0.1,0-0.2-0.1-0.2c0-0.1-0.1-0.2-0.1-0.3c0-0.1-0.1-0.2-0.1-0.3c0-0.1-0.1-0.2-0.1-0.2c0,0,0-0.1-0.1-0.1 c0,0-0.1-0.1-0.1-0.1c0-0.1-0.1-0.2-0.1-0.2c-0.1-0.1-0.1-0.2-0.2-0.2c-0.1-0.1-0.1-0.1-0.2-0.2c-0.1-0.1-0.1-0.1-0.2-0.2 c-0.1-0.1-0.1-0.1-0.2-0.2c-0.1-0.1-0.2-0.1-0.2-0.2c-0.1-0.1-0.1-0.1-0.2-0.1c0,0-0.1-0.1-0.1-0.1c0,0-0.1,0-0.1-0.1 c-0.1,0-0.2-0.1-0.2-0.1c-0.1,0-0.1-0.1-0.2-0.1c-1.2-0.6-2.4-1.1-3.8-1.3c-0.2,0-0.4,0-0.5,0c0,0,0,0,0,0l0.2-2.4 c0-0.2-0.2-0.4-0.4-0.4s-0.4,0.2-0.4,0.4l-0.2,2.4c0,0,0,0.1,0,0.1c-0.3,0-0.7,0.1-1,0.1c-0.8,0.2-1.5,0.5-2.2,0.8l-0.3,0.1 c-0.1,0-0.2,0.1-0.3,0.1c-0.2,0.1-0.3,0.2-0.5,0.3c-0.3,0.2-0.6,0.5-0.9,0.7c-0.6,0.5-1.1,1.1-1.6,1.7c-0.2,0.3-0.4,0.5-0.6,0.8 c-0.1-0.1-0.1-0.2-0.2-0.2l-3-2.1c-0.3-0.2-0.8-0.1-1,0.2c-0.2,0.3-0.1,0.8,0.2,1l3,2.1c0.1,0.1,0.2,0.1,0.3,0.1 c-0.4,0.7-0.7,1.5-1,2.2c-0.1,0.5-0.3,1-0.3,1.5c0,0,0,0,0,0l0,0c0,0.3-0.1,0.5-0.1,0.8c0,0.2,0,0.4,0,0.6l0,0.3l0,0.3l0,0.6 l0,0.6c0.1,1.4,0.4,2.7,0.9,4c-0.1,0-0.2,0-0.3,0.1l-5.5,2.1c-0.5,0.2-0.8,0.8-0.6,1.3c0.2,0.5,0.8,0.8,1.3,0.6l5.5-2.1 c0.1,0,0.2-0.1,0.3-0.2c0.5,1,1,2,1.6,3c0.9,1.3,1.8,2.6,2.8,3.7c0.5,0.6,1.1,1.1,1.7,1.7c1,0.9,2,1.7,3.1,2.5c0,0,0,0,0,0 l-4.3,7.2c-0.3,0.6-0.1,1.3,0.4,1.7l0,0c0.6,0.3,1.3,0.1,1.7-0.4l4.2-7.2c0.2,0.1,0.4,0.2,0.6,0.3c2.8,1.5,5.9,2.4,9,2.8 c0.8,0.1,1.6,0.2,2.4,0.2s1.6,0,2.4,0c0.8,0,1.6-0.1,2.4-0.2c0.5-0.1,1.1-0.1,1.6-0.2L82.2,114c-0.1,0.9,0.5,1.6,1.3,1.8l0,0 c0.8,0.1,1.6-0.5,1.7-1.4l0.9-12.6c0,0,0,0,0,0c2.3-0.5,4.5-1.2,6.7-2.1c2.9-1.2,5.7-2.6,8.4-4.3c2.7-1.7,5.2-3.7,7.5-5.9 c0.6-0.6,1.1-1.1,1.7-1.7l-0.6,20.8c0,1,0.8,1.8,1.8,1.9l0.1,0c1,0,1.9-0.7,1.9-1.7l0.6-25.6c2.1-2.8,4-5.7,5.7-8.7 c1.1-2.1,2.2-4.2,3.1-6.4c1.6-3.6,2.9-7.3,3.9-11.2c0.6-2.3,1.1-4.6,1.4-7C129,46,129.2,42,128.9,37.9z"></path> </g> <g> <path class="st2" d="M193.6,98.4l-15.8-19h-21.6v19h-8V41.5h34.7c11.6,0,20.7,5.6,20.7,18.9c0,11.6-6.8,17.7-16.1,18.8l16,19.2 H193.6z M156.1,48.9v23h26.7c6.9,0,12.7-3.2,12.7-11.6c0-8.1-5.6-11.5-12.7-11.5H156.1z"></path> <path class="st2" d="M215.1,98.4V41.5h50.2v7.4h-42.3v17.3h37.6v7.4h-37.6V91h42.3v7.4H215.1z"></path> <path class="st2" d="M283.6,79.3v19h-8V41.5h34.7c11.6,0,20.7,5.6,20.7,18.9c0,13.4-9.1,19-20.7,19H283.6z M283.6,48.9v23h26.7 c6.9,0,12.7-3.2,12.7-11.6c0-8.1-5.6-11.5-12.7-11.5H283.6z"></path> <path class="st3" d="M387.2,98.4l-15.8-19h-21.6v19h-8V41.5h34.7c11.6,0,20.7,5.6,20.7,18.9c0,11.6-6.8,17.7-16.1,18.8l16,19.2 H387.2z M349.7,48.9v23h26.7c6.9,0,12.7-3.2,12.7-11.6c0-8.1-5.6-11.5-12.7-11.5H349.7z"></path> <path class="st3" d="M456.3,41.5h8V70c0,20.9-12.6,29.6-28.5,29.6c-15.9,0-28.5-8.6-28.5-29.6V41.5h8V70 c0,15.8,9.2,22.2,20.6,22.2c11.4,0,20.6-6.3,20.6-22.2V41.5z"></path> <path class="st3" d="M522.2,52.3c-6.5-2.9-13.9-4.5-21.9-4.5c-9.6,0-18.6,2.4-18.6,9.2c0,6.9,8.6,7.8,17.3,9.3 c15.6,2.6,27.9,5.1,27.9,16.6c0,12.4-14.7,16.7-27.9,16.7c-8.6,0-18.3-1.7-25.8-5l2.2-6.9c7.2,2.9,15.1,4.8,24.1,4.8 c10.1,0,19.4-2.4,19.4-9.2c0-6.6-8.9-7.8-19.9-9.6c-13.3-2-25.3-4.6-25.3-16.4c0-12.4,13.2-16.9,26.8-16.9c8.7,0,16.9,1.7,24.4,5 L522.2,52.3z"></path> </g> </g> </g> </svg> 