<?xml version="1.0" standalone="no"?>
<!DOCTYPE svg PUBLIC "-//W3C//DTD SVG 20010904//EN"
 "http://www.w3.org/TR/2001/REC-SVG-20010904/DTD/svg10.dtd">
<svg version="1.0" xmlns="http://www.w3.org/2000/svg"
 width="143.000000pt" height="143.000000pt" viewBox="0 0 143.000000 143.000000"
 preserveAspectRatio="xMidYMid meet">
<metadata>
Created by potrace 1.11, written by Peter Selinger 2001-2013
</metadata>
<g transform="translate(0.000000,143.000000) scale(0.100000,-0.100000)"
fill="#000000" stroke="none">
<path d="M874 970 c-23 -25 -53 -59 -67 -76 l-26 -31 25 -12 c15 -6 23 -7 19
-1 -6 10 63 100 76 100 4 0 15 -24 25 -52 9 -29 19 -58 21 -64 2 -6 -10 -17
-27 -24 l-32 -13 36 -20 c30 -18 41 -35 76 -121 22 -56 40 -106 40 -113 0 -7
-26 -27 -57 -46 -83 -48 -92 -50 -101 -26 -6 15 -14 -2 -33 -71 -14 -49 -25
-90 -24 -90 1 0 58 32 125 71 118 69 128 73 248 95 68 12 126 24 128 26 2 3
22 32 43 66 l40 62 -27 6 c-168 39 -178 45 -239 140 -19 30 -36 44 -62 50 -34
9 -37 13 -65 93 -29 82 -29 83 -43 57 -18 -34 -27 -33 -44 7 l-14 33 -41 -46z
m249 -268 c15 -15 27 -31 27 -34 0 -23 -138 32 -140 55 0 4 19 7 43 7 34 0 49
-6 70 -28z"/>
<path d="M543 998 c-6 -7 -13 -21 -16 -30 -8 -24 -24 -23 -32 2 -11 35 -22 22
-48 -57 -24 -74 -27 -78 -62 -87 -30 -7 -44 -20 -82 -76 l-45 -68 -81 -22
c-127 -33 -121 -25 -79 -97 29 -48 44 -63 67 -68 17 -3 75 -14 130 -24 91 -17
111 -25 220 -89 66 -39 121 -69 122 -68 3 3 -39 160 -44 166 -3 3 -9 -3 -14
-13 -10 -17 -16 -15 -77 19 -37 20 -71 40 -75 44 -4 4 11 55 33 113 35 87 48
110 78 131 20 14 32 26 26 26 -5 0 -18 6 -29 13 -18 14 -18 16 0 75 10 34 22
62 25 62 3 0 23 -18 44 -39 25 -25 37 -45 33 -55 -8 -20 2 -20 27 -1 17 13 15
18 -45 84 -35 39 -64 71 -65 71 -1 0 -6 -6 -11 -12z m-90 -274 c11 -12 -59
-51 -101 -56 l-42 -6 26 34 c23 29 32 34 69 34 23 0 44 -3 48 -6z"/>
<path d="M848 603 c-21 -9 -38 -22 -38 -29 0 -17 1 -17 34 -4 14 5 30 18 36
30 6 11 9 20 8 19 -2 -1 -20 -8 -40 -16z"/>
<path d="M586 597 c3 -8 20 -21 38 -30 32 -15 34 -15 29 2 -3 10 -16 24 -29
30 -33 15 -45 14 -38 -2z"/>
<path d="M686 372 c-3 -5 -2 -18 1 -30 4 -18 13 -22 43 -22 25 0 40 5 44 16
14 36 7 44 -38 44 -25 0 -47 -4 -50 -8z"/>
</g>
</svg>
